PathFileType	4	(X/Y/Z)	56_2_51_p0_0-143_filt_butterworth.trc
DataRate	CameraRate	NumFrames	NumMarkers	Units	OrigDataRate	OrigDataStartFrame	OrigNumFrames
50.0	50.0	5	27	m	50.0	71	143
Frame#	Time	RHip			RKnee			RAnkle			RBigToe			RSmallToe			RHeel			LHip			LKnee			LAnkle			LBigToe			LSmallToe			LHeel			Neck			Head			Nose			RShoulder			RElbow			RWrist			RThumb			RIndex			RPinky			LShoulder			LElbow			LWrist			LThumb			LIndex			LPinky			
		X1	Y1	Z1	X2	Y2	Z2	X3	Y3	Z3	X4	Y4	Z4	X5	Y5	Z5	X6	Y6	Z6	X7	Y7	Z7	X8	Y8	Z8	X9	Y9	Z9	X10	Y10	Z10	X11	Y11	Z11	X12	Y12	Z12	X13	Y13	Z13	X14	Y14	Z14	X15	Y15	Z15	X16	Y16	Z16	X17	Y17	Z17	X18	Y18	Z18	X19	Y19	Z19	X20	Y20	Z20	X21	Y21	Z21	X22	Y22	Z22	X23	Y23	Z23	X24	Y24	Z24	X25	Y25	Z25	X26	Y26	Z26	X27	Y27	Z27	
71	1.42	0.4442020201596346	0.6778542238348981	0.24732626953362072	0.4698382872572824	0.8475237109983025	0.6642318702187473	0.5088095461071147	1.1164095706137471	1.0867795230258532	0.4027916518936042	0.8607585615614958	1.1346101249232377	0.47752904580269734	0.9222771308656239	1.1578761883146464	0.5100319999372214	1.1697805652898643	1.1158828039006736	0.25410490834494404	0.7765732782324474	0.23932166809971203	0.2973279423128777	0.9393299462208082	0.6565524090800834	0.33324533584995125	1.1107422163224319	1.0249067509438363	0.2483196786410398	0.9025426567590092	1.1239793929416249	0.2270781750347194	1.0042074991171686	1.130007808582191	0.36249872728872967	1.1725706099893056	1.0787318091698013	0.3516044910865037	0.5461982610610943	-0.24049973411526623	0.3210753681895197	0.3876741422718982	-0.45364883975951564	0.31682826285839627	0.3884280564605527	-0.3068761914769851	0.47874016315567103	0.4786423500371171	-0.14297525332518737	0.5521719227661716	0.4815680635822441	0.11290156732965315	0.4444238364802299	0.35739560611190163	-0.036725993111328646	0.4201438521310691	0.4378290762432348	-0.14428375054084017	0.38440982260534834	0.3934597683383628	-0.15187439095354324	0.37792286395979624	0.3751385706203078	-0.10833802443478649	0.20237280797367985	0.6164181971163142	-0.1688176251128716	0.14615274239533052	0.7405912654884915	0.06656461474384737	0.11688585515517444	0.7780190773840765	0.32220037083984876	0.15784272734502233	0.7356116143145531	0.4225439922915444	0.11447137721870264	0.6929425236111948	0.42916342140759123	0.10081106160486188	0.7777366376828658	0.4294671669857764
72	1.44	0.44534288826732615	0.6779241787353147	0.24844456391610573	0.4692919649806031	0.8465917694075927	0.6641175869796713	0.5082064485274848	1.1153357012643539	1.0863772544547179	0.40066598627912486	0.8574254420390837	1.1335201280729708	0.4750393612895938	0.9107599428707431	1.155910145741692	0.5096627793307676	1.1692026412506584	1.1155825034153404	0.25423358875346425	0.7766492830104822	0.23919541144451298	0.29768578034987764	0.9401980321676586	0.6579100783354697	0.3332285689221555	1.1107328918133001	1.0248968453294331	0.24848692428253813	0.9045442748973778	1.1229648746888001	0.22762341714183293	1.0028429053084384	1.1297705334245631	0.3625116675400224	1.1725856214557449	1.0785101481744883	0.352002193435211	0.5536373905782517	-0.24076699072891486	0.3214104960954852	0.38843234181809794	-0.4515395088696973	0.31983619191234475	0.3926780074069024	-0.30744362899550315	0.48416884435764	0.4895317732873843	-0.1439941495805726	0.5571875828151058	0.48425946328144653	0.11133562597730236	0.44542036701825827	0.34726376025876304	-0.030842371131979934	0.4167329023696596	0.42687244246304656	-0.13654734723392142	0.38567625980136633	0.3840331015606426	-0.14510453135948365	0.37666385230323085	0.34003893137707397	-0.09018487634340863	0.20272203264332267	0.6179035313230483	-0.16701548465187427	0.14650679609459089	0.7417096375696705	0.06686787049208914	0.11716615357051043	0.7788772276770939	0.3232610923616305	0.15636836239765867	0.7353097450880843	0.4225809296323592	0.11444147639273389	0.692624749955526	0.42911173084361365	0.10054854976806056	0.7773177590768237	0.4294947574337679
73	1.46	0.44797922760631514	0.6794628705805102	0.2505274331277846	0.46699524874477505	0.8430663897736668	0.663683758463621	0.5058380149770709	1.1113998919785588	1.0853080774829178	0.40014636003799686	0.8566053842890686	1.1332073673775547	0.471687843042316	0.902268808555697	1.1535349992468003	0.509495300835249	1.1689610339400385	1.1154939836470934	0.2540697430210911	0.7763282022519011	0.2390976514530753	0.29777521571286014	0.9404261164812061	0.658252476249545	0.3332157679190656	1.1106964978998959	1.0249024463266816	0.24863326952444595	0.9075777744890478	1.122346807250097	0.22858267256411374	1.0018306911787853	1.1297292246063622	0.3625241835909643	1.172582603391797	1.078270375849935	0.3524891169699573	0.5621202625133768	-0.24129113378030698	0.3217270533019131	0.3889331195895409	-0.4497797467046076	0.32212447826671536	0.39590928743463316	-0.30822892661801016	0.4879405386051272	0.49782973655308904	-0.14329470438897104	0.5636305581281085	0.48510243758512994	0.11063855541812807	0.4459590826565626	0.32918371108019173	-0.022616087917485157	0.4096033344798529	0.40408878742494175	-0.12905441975086718	0.38432951257483616	0.3578345517456584	-0.13106596472520055	0.3715971988002801	0.2999952219272866	-0.06738377721088876	0.20289257465757315	0.6184745179339404	-0.16653730119941912	0.14667698119446726	0.7427358377705232	0.06708373630137776	0.11710401065919768	0.7789496461777651	0.3235219927287483	0.1559369857275807	0.7352898846150063	0.42262687636316987	0.11438875748197255	0.6926854873474366	0.42913489743059174	0.10031980835036289	0.7769873873999866	0.42962912629520433
74	1.48	0.4520183276219478	0.6837284574030251	0.252996801589513	0.46352865856485204	0.8379136729224371	0.6631019700685785	0.5022923280858405	1.1055938501450242	1.0838024237164485	0.4004023628954654	0.8570074717872953	1.1332750023987428	0.4693391682432116	0.8994498762399242	1.151624559212094	0.5094304135549593	1.168864136852982	1.115487024546553	0.2547895117772901	0.776928691683798	0.2390887692621215	0.2977434353340611	0.9403474349018865	0.6581237503150494	0.33320026532576275	1.1106544291109075	1.0248702703976047	0.24873226874102952	0.9081278054606652	1.1227926285883025	0.22953122137861004	1.0019359109840347	1.1299232018492384	0.3625133276464165	1.1725443469073464	1.078124775482862	0.3529302111478614	0.5689535115692823	-0.2427088389348235	0.32131200600041804	0.3883502248114842	-0.44923044628964803	0.3244552565093462	0.3993091224445843	-0.30912548816538543	0.4889481676664681	0.5005827102540382	-0.14165009322399794	0.5697093125743373	0.48553284128395413	0.11047915086610588	0.4455027372930421	0.3052164247420446	-0.00996270983003196	0.4015092697081199	0.3653940811648503	-0.1187497400928737	0.380992360893476	0.31927582179816155	-0.11230536012485906	0.36543350303471306	0.2629042477818917	-0.0460478294707359	0.2029829156168037	0.6185170377058788	-0.16669928936063563	0.14654822438960738	0.7430814467594831	0.06710020871133499	0.11683593918566929	0.7784333551528255	0.32343094582361986	0.15587359166419043	0.735268977871747	0.42262922825194216	0.11431135243609036	0.6928444438150759	0.4291981718979116	0.10017711853654943	0.776832851410697	0.4297698528958725
75	1.5	0.4563317525598882	0.6893784065580573	0.2547472366553613	0.46102165679741447	0.8342671480124315	0.6627084345525657	0.49971488294351574	1.1013708135321405	1.0826815083648038	0.4007410831171904	0.8575058011603851	1.1333388820133754	0.4687274216262596	0.8997855486429647	1.1506723488534727	0.5092820413745622	1.168802788578001	1.11541306322124	0.25628290639106666	0.7781151719123302	0.2391737234427735	0.2977157670185373	0.9402770384145166	0.6580126156541634	0.3331792107863478	1.1106365794759414	1.0247517803372586	0.24876813096261982	0.9046489031482203	1.1236277788968683	0.22991692515005643	1.0023850437705046	1.1301647188520316	0.3624800037092067	1.1724907068601698	1.0781348277646798	0.35321430851808366	0.5724099288767892	-0.2445095507628031	0.31947091738186023	0.3858863323733666	-0.44878802479736185	0.32612766547027905	0.40180379007688993	-0.3098285923790591	0.4887849608153074	0.500179778284799	-0.14071023269070332	0.5720484281336178	0.48641654005224777	0.11034445417875052	0.4444886853673718	0.2823394248258981	0.005517287455415612	0.3960795244740146	0.315336276351184	-0.10247715031907116	0.3787700925325418	0.2826078090850539	-0.09307554688623262	0.3647536321153906	0.2314352018250546	-0.027141120697133828	0.2030584552330007	0.6184899218610862	-0.16684307775731202	0.14620112863046006	0.7426065627174221	0.06694242359462216	0.11652740696378697	0.7777077909646611	0.3233695418022612	0.15548334856303575	0.7349565662345217	0.42257241734321394	0.11420841628747369	0.6928902856645971	0.4292421583763205	0.1000490472438458	0.7766321204340696	0.42947436477750234
